<svg width="230" height="38" viewBox="0 0 230 38" fill="none" xmlns="http://www.w3.org/2000/svg">
<path d="M26.8 7.92L25.392 13.296H4.528L7.984 7.92H26.8ZM24.72 15.376L23.184 21.2H12.784L11.952 24.208H22.256L20.72 29.968H1.936L5.84 15.376H24.72ZM38.056 7.92L36.584 13.296H28.872L30.408 7.92H38.056ZM36.104 15.376L32.104 29.968H24.328L28.392 15.376H36.104ZM62.2378 7.92L60.9258 13.264H40.0298C40.4138 12.0267 41.1604 10.8533 42.2698 9.744C43.4858 8.528 44.7551 7.92 46.0778 7.92H62.2378ZM60.3498 16.176L58.6538 22.448C58.1844 24.1547 57.4698 25.5733 56.5098 26.704C54.6538 28.88 51.9551 29.968 48.4138 29.968H44.5738C40.8618 29.968 38.5898 28.912 37.7578 26.8C37.4164 25.9467 37.2458 25.168 37.2458 24.464C37.2458 23.888 37.3524 23.2053 37.5658 22.416L39.5498 15.376H47.1018L45.2138 21.968C45.1071 22.3307 45.0538 22.5973 45.0538 22.768C45.0538 23.1947 45.2671 23.472 45.6938 23.6H50.2378C50.8778 23.4293 51.3044 22.8853 51.5178 21.968L51.5818 21.584L46.8458 21.648L50.2378 16.176H60.3498ZM85.7063 7.92L84.2983 13.296H63.4343L66.8903 7.92H85.7063ZM83.6263 15.376L82.0903 21.2H71.6903L70.8583 24.208H81.1623L79.6263 29.968H60.8422L64.7463 15.376H83.6263ZM110.21 7.92L108.61 13.264H87.6503L89.1543 7.92H96.4183L101.154 12.432L102.306 7.92H110.21ZM108.194 15.376L104.29 29.968H96.2583L98.7223 21.104L94.0503 16.848L90.3383 30H83.0102L87.0103 15.376H108.194ZM134.25 7.92L132.81 13.232H112.074C112.522 11.8667 113.343 10.6613 114.538 9.616C115.839 8.48533 117.162 7.92 118.506 7.92H134.25ZM128.842 27.952C127.988 28.8267 126.666 29.5093 124.874 30L107.402 29.968L109.098 23.888L121.194 23.952C122.239 23.824 122.762 23.312 122.762 22.416C122.762 21.8827 122.687 21.52 122.538 21.328C122.41 21.136 122.09 20.9547 121.578 20.784H115.402C114.058 20.784 113.076 20.4533 112.458 19.792C111.839 19.1093 111.53 18.0107 111.53 16.496C111.53 15.7493 111.53 15.376 111.53 15.376H125.674C127.402 15.5893 128.564 15.9307 129.162 16.4C129.247 16.464 129.823 17.0933 130.89 18.288C131.295 19.312 131.498 20.4747 131.498 21.776C131.498 24.144 130.612 26.2027 128.842 27.952ZM158.728 7.92L157.256 13.232H135.944L139.336 7.92H158.728ZM150.44 15.376L146.568 29.968H139.24L143.208 15.376H150.44ZM178.454 13.296H164.63L169.238 7.92H177.302L178.454 13.296ZM182.038 29.968H174.006L171.83 21.264H167.286L160.854 29.968H151.478L162.934 15.344H178.902L182.038 29.968ZM206.697 7.92L205.225 13.232H183.913L187.305 7.92H206.697ZM198.409 15.376L194.537 29.968H187.209L191.177 15.376H198.409ZM229.175 7.92L227.767 13.296H206.903L210.359 7.92H229.175ZM227.095 15.376L225.559 21.2H215.159L214.327 24.208H224.631L223.095 29.968H204.311L208.215 15.376H227.095Z" fill="#BADAE7"/>
<path d="M24.8 5.92L23.392 11.296H2.528L5.984 5.92H24.8ZM22.72 13.376L21.184 19.2H10.784L9.952 22.208H20.256L18.72 27.968H-0.064L3.84 13.376H22.72ZM36.056 5.92L34.584 11.296H26.872L28.408 5.92H36.056ZM34.104 13.376L30.104 27.968H22.328L26.392 13.376H34.104ZM60.2378 5.92L58.9258 11.264H38.0298C38.4138 10.0267 39.1604 8.85333 40.2698 7.744C41.4858 6.528 42.7551 5.92 44.0778 5.92H60.2378ZM58.3498 14.176L56.6538 20.448C56.1844 22.1547 55.4698 23.5733 54.5098 24.704C52.6538 26.88 49.9551 27.968 46.4138 27.968H42.5738C38.8618 27.968 36.5898 26.912 35.7578 24.8C35.4164 23.9467 35.2458 23.168 35.2458 22.464C35.2458 21.888 35.3524 21.2053 35.5658 20.416L37.5498 13.376H45.1018L43.2138 19.968C43.1071 20.3307 43.0538 20.5973 43.0538 20.768C43.0538 21.1947 43.2671 21.472 43.6938 21.6H48.2378C48.8778 21.4293 49.3044 20.8853 49.5178 19.968L49.5818 19.584L44.8458 19.648L48.2378 14.176H58.3498ZM83.7063 5.92L82.2983 11.296H61.4343L64.8903 5.92H83.7063ZM81.6263 13.376L80.0903 19.2H69.6903L68.8583 22.208H79.1623L77.6263 27.968H58.8422L62.7463 13.376H81.6263ZM108.21 5.92L106.61 11.264H85.6503L87.1543 5.92H94.4183L99.1543 10.432L100.306 5.92H108.21ZM106.194 13.376L102.29 27.968H94.2583L96.7223 19.104L92.0503 14.848L88.3383 28H81.0102L85.0103 13.376H106.194ZM132.25 5.92L130.81 11.232H110.074C110.522 9.86667 111.343 8.66133 112.538 7.616C113.839 6.48533 115.162 5.92 116.506 5.92H132.25ZM126.842 25.952C125.988 26.8267 124.666 27.5093 122.874 28L105.402 27.968L107.098 21.888L119.194 21.952C120.239 21.824 120.762 21.312 120.762 20.416C120.762 19.8827 120.687 19.52 120.538 19.328C120.41 19.136 120.09 18.9547 119.578 18.784H113.402C112.058 18.784 111.076 18.4533 110.458 17.792C109.839 17.1093 109.53 16.0107 109.53 14.496C109.53 13.7493 109.53 13.376 109.53 13.376H123.674C125.402 13.5893 126.564 13.9307 127.162 14.4C127.247 14.464 127.823 15.0933 128.89 16.288C129.295 17.312 129.498 18.4747 129.498 19.776C129.498 22.144 128.612 24.2027 126.842 25.952ZM156.728 5.92L155.256 11.232H133.944L137.336 5.92H156.728ZM148.44 13.376L144.568 27.968H137.24L141.208 13.376H148.44ZM176.454 11.296H162.63L167.238 5.92H175.302L176.454 11.296ZM180.038 27.968H172.006L169.83 19.264H165.286L158.854 27.968H149.478L160.934 13.344H176.902L180.038 27.968ZM204.697 5.92L203.225 11.232H181.913L185.305 5.92H204.697ZM196.409 13.376L192.537 27.968H185.209L189.177 13.376H196.409ZM227.175 5.92L225.767 11.296H204.903L208.359 5.92H227.175ZM225.095 13.376L223.559 19.2H213.159L212.327 22.208H222.631L221.095 27.968H202.311L206.215 13.376H225.095Z" fill="white"/>
</svg>
